<svg width="18" height="18" viewBox="0 0 18 18" fill="none" xmlns="http://www.w3.org/2000/svg">
<circle cx="9" cy="9" r="8.25" fill="#DBF1FF" stroke="#0078C2" stroke-width="1.5"/>
<path d="M10.0813 10.2611C10.0305 10.4219 10.003 10.6716 9.99878 11.0101H8.28491C8.3103 10.295 8.37801 9.80196 8.48804 9.53113C8.59806 9.25606 8.88159 8.9408 9.33862 8.58533L9.802 8.22351C9.95435 8.10925 10.0771 7.98442 10.1702 7.849C10.3394 7.61625 10.4241 7.36023 10.4241 7.08093C10.4241 6.75932 10.3289 6.46733 10.1384 6.20496C9.95223 5.93835 9.60946 5.80505 9.11011 5.80505C8.61922 5.80505 8.2701 5.96798 8.06274 6.29382C7.85962 6.61967 7.75806 6.95821 7.75806 7.30945H5.92358C5.97437 6.10339 6.39543 5.24858 7.18677 4.745C7.68612 4.42338 8.29972 4.26257 9.02759 4.26257C9.98397 4.26257 10.7774 4.49109 11.408 4.94812C12.0427 5.40515 12.3601 6.08223 12.3601 6.97937C12.3601 7.5295 12.2226 7.99288 11.9475 8.36951C11.7867 8.59802 11.4778 8.89001 11.0208 9.24548L10.5701 9.5946C10.3246 9.78503 10.1617 10.0072 10.0813 10.2611ZM10.1321 13.7142H8.24048V11.8798H10.1321V13.7142Z" fill="#0078C2"/>
</svg>
